<?xml version="1.0" encoding="utf-8"?>
<!-- Generator: Adobe Illustrator 19.2.1, SVG Export Plug-In . SVG Version: 6.00 Build 0)  -->
<svg version="1.1" id="Calque_1" xmlns="http://www.w3.org/2000/svg" xmlns:xlink="http://www.w3.org/1999/xlink" x="0px" y="0px"
	 viewBox="0 0 200 200" style="enable-background:new 0 0 200 200;" xml:space="preserve">
<style type="text/css">
	.st0{fill:#010202;}
	.st1{clip-path:url(#SVGID_2_);fill:#FFFFFF;}
</style>
<circle class="st0" cx="100" cy="100" r="100"/>
<g>
	<defs>
		<rect id="SVGID_1_" x="50.9" y="50.9" width="98.2" height="98.2"/>
	</defs>
	<clipPath id="SVGID_2_">
		<use xlink:href="#SVGID_1_"  style="overflow:visible;"/>
	</clipPath>
	<path class="st1" d="M100,59.7c13.1,0,14.7,0.1,19.8,0.3c4.8,0.2,7.4,1,9.1,1.7c2.3,0.9,3.9,2,5.6,3.7c1.7,1.7,2.8,3.4,3.7,5.6
		c0.7,1.7,1.5,4.3,1.7,9.1c0.2,5.2,0.3,6.7,0.3,19.8c0,13.1-0.1,14.7-0.3,19.8c-0.2,4.8-1,7.4-1.7,9.1c-0.9,2.3-2,3.9-3.7,5.6
		c-1.7,1.7-3.4,2.8-5.6,3.7c-1.7,0.7-4.3,1.5-9.1,1.7c-5.2,0.2-6.7,0.3-19.8,0.3c-13.1,0-14.7,0-19.8-0.3c-4.8-0.2-7.4-1-9.1-1.7
		c-2.3-0.9-3.9-2-5.6-3.7c-1.7-1.7-2.8-3.4-3.7-5.6c-0.7-1.7-1.5-4.3-1.7-9.1c-0.2-5.2-0.3-6.7-0.3-19.8c0-13.1,0.1-14.7,0.3-19.8
		c0.2-4.8,1-7.4,1.7-9.1c0.9-2.3,2-3.9,3.7-5.6c1.7-1.7,3.4-2.8,5.6-3.7c1.7-0.7,4.3-1.5,9.1-1.7C85.3,59.8,86.9,59.7,100,59.7
		 M100,50.9c-13.3,0-15,0.1-20.2,0.3c-5.2,0.2-8.8,1.1-11.9,2.3c-3.2,1.3-6,2.9-8.7,5.7c-2.7,2.7-4.4,5.5-5.7,8.7
		c-1.2,3.1-2,6.7-2.3,11.9C51,85,50.9,86.7,50.9,100c0,13.3,0.1,15,0.3,20.2c0.2,5.2,1.1,8.8,2.3,11.9c1.3,3.2,2.9,6,5.7,8.7
		c2.7,2.7,5.5,4.4,8.7,5.7c3.1,1.2,6.7,2,11.9,2.3c5.2,0.2,6.9,0.3,20.2,0.3c13.3,0,15-0.1,20.2-0.3c5.2-0.2,8.8-1.1,11.9-2.3
		c3.2-1.3,6-2.9,8.7-5.7s4.4-5.5,5.7-8.7c1.2-3.1,2-6.7,2.3-11.9c0.2-5.2,0.3-6.9,0.3-20.2c0-13.3-0.1-15-0.3-20.2
		c-0.2-5.2-1.1-8.8-2.3-11.9c-1.3-3.2-2.9-6-5.7-8.7c-2.7-2.7-5.5-4.4-8.7-5.7c-3.1-1.2-6.7-2-11.9-2.3
		C115,50.9,113.3,50.9,100,50.9"/>
	<path class="st1" d="M100,74.8c-13.9,0-25.2,11.3-25.2,25.2c0,13.9,11.3,25.2,25.2,25.2c13.9,0,25.2-11.3,25.2-25.2
		C125.2,86.1,113.9,74.8,100,74.8 M100,116.4c-9,0-16.4-7.3-16.4-16.4S91,83.6,100,83.6c9,0,16.4,7.3,16.4,16.4S109,116.4,100,116.4
		"/>
	<path class="st1" d="M132.1,73.8c0,3.3-2.6,5.9-5.9,5.9c-3.3,0-5.9-2.6-5.9-5.9c0-3.3,2.6-5.9,5.9-5.9
		C129.5,67.9,132.1,70.5,132.1,73.8"/>
</g>
</svg>
