<svg width="24" height="24" viewBox="0 0 24 24" xmlns="http://www.w3.org/2000/svg">
    <g fill="none" fill-rule="evenodd">
        <path fill="none" d="M0 24h24V0H0z"/>
        <path d="M12 1.5c5.79 0 10.5 4.71 10.5 10.5 0 2.495-.877 4.857-2.468 6.745l-.221.255H21.5a.5.5 0 0 1 .09.992L21.5 20h-3a.5.5 0 0 1-.492-.41L18 19.5v-3a.5.5 0 0 1 .992-.09l.008.09v1.908A9.44 9.44 0 0 0 21.5 12c0-5.238-4.262-9.5-9.5-9.5S2.5 6.762 2.5 12s4.262 9.5 9.5 9.5a.5.5 0 0 1 0 1C6.21 22.5 1.5 17.79 1.5 12S6.21 1.5 12 1.5zM14.386 5a1 1 0 0 1 1 .99l-.006.117L14.25 16.5H14v1.929c0 .284-.181.52-.42.564L13.5 19h-3c-.249 0-.455-.207-.494-.478l-.007-.093V16.5h-.25L8.62 6.107a1 1 0 0 1 .877-1.1L9.614 5h4.771zM13 16.5h-2V18h2v-1.5zM14.385 6H9.614l1.033 9.5h2.704L14.386 6z" fill="#333"/>
    </g>
</svg>
