<svg width="24" height="24" viewBox="0 0 24 24" xmlns="http://www.w3.org/2000/svg">
    <g fill="none" fill-rule="evenodd">
        <path fill="none" d="M0 24h24V0H0z"/>
        <path d="M12 2c2.395 0 3.906 1.439 3.996 3.778L16 6v1h3c.51 0 .935.388.993.884L20 8v12c0 1.05-.82 1.918-1.851 1.994L18 22H6c-1.05 0-1.918-.82-1.994-1.851L4 20v-1.5c0-.28.22-.5.5-.5.249 0 .45.174.492.41L5 18.5V20c0 .51.388.935.884.993L6 21h12c.51 0 .935-.388.993-.884L19 20V8h-3v1.5c0 .28-.22.5-.5.5a.494.494 0 0 1-.492-.41L15 9.5V8h-3.5c-.28 0-.5-.22-.5-.5 0-.249.174-.45.41-.492L11.5 7H15V6c0-1.93-1.07-3-3-3-1.861 0-2.922.995-2.996 2.797L9 6v.5c0 .28-.22.5-.5.5a.494.494 0 0 1-.492-.41L8 6.5V6c0-2.47 1.53-4 4-4zM7.5 15c.28 0 .5.22.5.5 0 .249-.174.45-.41.492L7.5 16h-2c-.28 0-.5-.22-.5-.5 0-.249.174-.45.41-.492L5.5 15h2zm0-3c.28 0 .5.22.5.5 0 .249-.174.45-.41.492L7.5 13h-4c-.28 0-.5-.22-.5-.5 0-.249.174-.45.41-.492L3.5 12h4zm0-3c.28 0 .5.22.5.5 0 .249-.174.45-.41.492L7.5 10h-6c-.28 0-.5-.22-.5-.5 0-.249.174-.45.41-.492L1.5 9h6z" fill="#333"/>
    </g>
</svg>
