<?xml version="1.0" standalone="no"?>
<!DOCTYPE svg PUBLIC "-//W3C//DTD SVG 20010904//EN"
 "http://www.w3.org/TR/2001/REC-SVG-20010904/DTD/svg10.dtd">
<svg version="1.0" xmlns="http://www.w3.org/2000/svg"
 width="44.000000pt" height="44.000000pt" viewBox="0 0 44.000000 44.000000"
 preserveAspectRatio="xMidYMid meet">

<g transform="translate(0.000000,44.000000) scale(0.100000,-0.100000)"
fill="#000000" stroke="none">
<path d="M135 421 c-50 -22 -109 -86 -125 -136 -44 -133 68 -285 210 -285 70
0 147 43 184 103 54 88 46 184 -23 260 -66 74 -162 96 -246 58z m62 -128 c15
-21 28 -40 30 -42 1 -2 21 16 42 40 22 24 40 39 41 33 0 -6 -7 -17 -15 -24 -9
-7 -25 -25 -35 -40 -19 -27 -19 -27 4 -61 12 -19 31 -46 41 -61 l17 -28 -31 0
c-25 0 -36 8 -58 41 l-27 41 -39 -42 c-21 -23 -41 -39 -44 -37 -2 3 12 23 31
45 20 22 36 43 36 46 0 4 -18 34 -40 67 l-41 59 30 0 c23 0 36 -9 58 -37z"/>
<path d="M203 218 c36 -51 73 -95 82 -96 12 -3 -4 27 -48 90 -36 51 -73 95
-82 96 -12 3 4 -27 48 -90z"/>
</g>
</svg>
